<svg width="194" height="192" viewBox="0 0 194 192" fill="none" xmlns="http://www.w3.org/2000/svg">
<path fill-rule="evenodd" clip-rule="evenodd" d="M121.643 161.457C75.7908 161.457 43.8298 115.991 60.3222 73.6667C62.6361 72.4968 65.1526 71.6438 67.7963 71.1899C68.2585 71.1103 68.6227 71.0816 69.0916 71.0243C81.0795 69.5413 92.5601 76.1748 96.9746 87.5087L96.9905 87.4696C99.401 93.6152 99.2885 100.289 97.0037 106.136C95.4064 102.064 94.9137 97.7496 95.4369 93.5891C94.6515 90.3298 93.2462 87.0457 91.282 84.1267L91.1959 83.9989C84.6887 98.9222 90.4158 116.636 105.103 125.018C105.143 125.038 105.178 125.065 105.218 125.083C117.739 132.162 131.83 129.292 138.236 124.988C160.001 112.515 160.183 81.9135 138.986 69.047C137.626 65.896 136.043 62.8596 134.255 59.959C150.023 65.1708 161.131 79.8266 161.131 96.8027C161.131 118.245 143.418 135.689 121.643 135.689C91.5283 135.689 72.93 103.876 86.7575 78.5459L86.6662 78.7141C84.9178 77.2664 83.1073 75.9687 81.1603 74.9044C64.4493 104.585 86.1642 142.282 121.643 142.282C147.109 142.282 167.825 121.88 167.825 96.8027C167.825 74.1975 150.98 55.1033 128.427 51.8348C126.439 49.435 124.293 47.1643 122.009 45.0371C150.828 45.2327 174.214 68.3779 174.214 96.8027C174.214 125.349 150.632 148.572 121.643 148.572C81.8927 148.572 56.7421 106.682 75.171 72.5841L75.1511 72.5776C73.0187 72.0924 70.5869 71.8186 68.0002 71.9868C49.6204 110.396 78.1391 155.164 121.643 155.164C154.321 155.164 180.91 128.983 180.91 96.8027C180.91 62.0797 150.035 34.6213 114.433 38.881C111.856 37.0616 109.153 35.4052 106.341 33.9249C147.762 24.1678 187.299 55.2637 187.299 96.8027C187.299 132.454 157.845 161.457 121.643 161.457ZM87.2476 172.522V192H80.5616V173.604L80.6265 173.593C82.7828 173.344 84.9456 172.993 87.1112 172.544L87.2476 172.522ZM100.344 170.862V192H93.6568V170.875L93.7098 170.859C94.7919 170.522 95.8369 170.172 96.9031 169.803L96.956 169.783L97.0077 169.765C97.6143 169.982 98.2209 170.188 98.8289 170.385C99.2818 170.532 99.7335 170.674 100.188 170.814L100.238 170.829L100.291 170.845L100.344 170.862ZM113.433 173.601V192H106.745V172.513L106.85 172.535L106.955 172.558L107.059 172.578C108.454 172.865 109.85 173.112 111.241 173.314L111.345 173.33C112.042 173.43 112.737 173.52 113.433 173.601ZM80.5616 0H87.2476V20.7258L87.1443 20.7037L87.0383 20.6815L86.8291 20.6384L86.7258 20.6176C86.1681 20.5041 85.6119 20.3985 85.0556 20.2981L85.0516 20.2967L84.947 20.2785L84.8423 20.2602L84.7377 20.242L84.6318 20.2237L84.5284 20.2054C83.9708 20.1102 83.4132 20.0216 82.857 19.9394L82.7523 19.9237L82.6477 19.9081L82.5431 19.8937L82.4384 19.8794L82.3351 19.865C81.7775 19.7868 81.2199 19.715 80.6649 19.6498L80.5616 19.6381V0ZM93.6568 0H100.344V22.3705L100.291 22.3874L100.238 22.4031L100.185 22.4188L100.133 22.4357L100.082 22.4514L100.029 22.467C99.6275 22.5909 99.2262 22.7174 98.8262 22.8466C98.2117 23.0461 97.5971 23.2548 96.9839 23.4739C96.3812 23.2574 95.7773 23.0539 95.1733 22.857C94.7548 22.7201 94.3362 22.5883 93.9164 22.4592L93.8647 22.4435L93.8131 22.4279L93.7601 22.4122L93.7098 22.3953L93.6568 22.3796V0ZM106.745 0H113.433V19.6381L113.328 19.6498C112.737 19.719 112.145 19.7946 111.554 19.8794L111.451 19.8937L111.345 19.9081L111.242 19.9237L111.137 19.9381C109.814 20.1324 108.49 20.3659 107.164 20.6359L107.059 20.658L106.955 20.6789L106.85 20.7011L106.745 20.7232V0ZM39.251 96.8027C39.251 107.529 44.6576 117.555 53.5342 123.608C52.4548 119.888 51.5979 116.01 50.9515 111.989C44.2907 102.884 44.2682 90.7041 50.9409 81.6109C48.7555 91.4997 48.7224 101.918 50.9515 111.989C51.7833 116.157 53.1581 120.386 54.9753 124.539L55.0084 124.559C56.3673 127.71 57.9514 130.746 59.7368 133.648C61.4176 136.348 63.3553 139.049 65.4347 141.75L65.5672 141.769C67.5565 144.171 69.6995 146.443 71.9829 148.567C74.2915 150.8 76.7921 152.872 79.5616 154.725C82.1311 156.54 84.8278 158.195 87.633 159.67L87.6436 159.675L87.6529 159.681C90.6555 161.235 93.764 162.783 97.0077 163.794L97.0104 163.796C144.13 180.644 193.993 146.025 193.993 96.8027C193.993 47.6038 144.167 12.9577 96.9839 29.8113C49.8668 12.9577 0 47.579 0 96.8027C0 143.132 44.1834 176.549 88.7363 166.218L88.5866 166.134C85.5337 164.641 82.6808 162.99 80.0239 161.195L79.8093 161.05C41.3702 165.456 6.69393 135.701 6.69393 96.8027C6.69393 61.1524 36.1478 32.1485 72.3512 32.1485C118.203 32.1485 150.163 77.6133 133.671 119.939C131.17 121.204 128.444 122.092 125.562 122.516C144.827 83.9128 116.194 38.4402 72.3512 38.4402C39.6722 38.4402 13.0832 64.6217 13.0832 96.8027C13.0832 129.159 39.908 155.221 72.379 155.158C70.0187 152.978 67.8612 150.649 65.8956 148.178C65.7274 148.146 19.7785 141.721 19.7785 96.8027C19.7785 68.2566 43.3635 45.0332 72.3512 45.0332C112.695 45.0332 138.003 88.1856 117.965 122.547C115.732 122.24 113.585 121.657 111.565 120.832C130.591 90.8619 108.683 51.3249 72.3512 51.3249C46.8853 51.3249 26.1678 71.7259 26.1678 96.8027C26.1678 117.805 40.7066 135.771 60.856 140.837C59.2878 138.179 57.8971 135.393 56.6693 132.491L56.7633 132.53C42.5927 126.545 32.8617 112.69 32.8617 96.8027C32.8617 75.3609 50.5753 57.9165 72.3512 57.9165C103.463 57.9165 122.283 91.874 105.753 117.555C104.001 116.25 102.422 114.735 101.049 113.051C110.188 97.4431 104.666 77.5859 88.882 68.584C88.8463 68.5657 88.8132 68.5397 88.7774 68.524C66.6016 55.9837 39.251 71.9933 39.251 96.8027ZM143.041 81.6161C149.702 90.7197 149.726 102.901 143.053 111.995C145.243 102.089 145.265 91.6679 143.041 81.6161Z" fill="#E11493"/>
</svg>
