<svg xmlns="http://www.w3.org/2000/svg" height="36px" viewBox="0 0 24 24" width="36px" fill="#000000">
<defs>
<symbol id="search">
<path d="M15.5 14.6666H14.71L14.43 14.3838C15.41 13.1895 16 11.639 16 9.95235C16 6.19139 13.09 3.14282 9.5 3.14282C5.91 3.14282 3 6.19139 3 9.95235C3 13.7133 5.91 16.7619 9.5 16.7619C11.11 16.7619 12.59 16.1438 13.73 15.1171L14 15.4104V16.2381L19 21.4657L20.49 19.9047L15.5 14.6666ZM9.5 14.6666C7.01 14.6666 5 12.5609 5 9.95235C5 7.34377 7.01 5.23806 9.5 5.23806C11.99 5.23806 14 7.34377 14 9.95235C14 12.5609 11.99 14.6666 9.5 14.6666Z"/>
</symbol>
<symbol id="person">
<path d="M12 5.9C13.16 5.9 14.1 6.84 14.1 8C14.1 9.16 13.16 10.1 12 10.1C10.84 10.1 9.9 9.16 9.9 8C9.9 6.84 10.84 5.9 12 5.9ZM12 14.9C14.97 14.9 18.1 16.36 18.1 17V18.1H5.9V17C5.9 16.36 9.03 14.9 12 14.9ZM12 4C9.79 4 8 5.79 8 8C8 10.21 9.79 12 12 12C14.21 12 16 10.21 16 8C16 5.79 14.21 4 12 4ZM12 13C9.33 13 4 14.34 4 17V20H20V17C20 14.34 14.67 13 12 13Z"/>
</symbol>
<symbol id="shopping-basket">
<path d="M0 0h24v24H0V0z" fill="none"/><path d="M22 9h-4.79l-4.38-6.56c-.19-.28-.51-.42-.83-.42s-.64.14-.83.43L6.79 9H2c-.55 0-1 .45-1 1 0 .09.01.18.04.27l2.54 9.27c.23.84 1 1.46 1.92 1.46h13c.92 0 1.69-.62 1.93-1.46l2.54-9.27L23 10c0-.55-.45-1-1-1zM12 4.8L14.8 9H9.2L12 4.8zM18.5 19l-12.99.01L3.31 11H20.7l-2.2 8zM12 13c-1.1 0-2 .9-2 2s.9 2 2 2 2-.9 2-2-.9-2-2-2z"/>
</symbol>
<symbol id="arrow-down">
<path d="M0 0h24v24H0V0z" fill="none"/><path d="M20 12l-1.41-1.41L13 16.17V4h-2v12.17l-5.58-5.59L4 12l8 8 8-8z"/>
</symbol>
<symbol id="star">
<g><path d="M0,0h24v24H0V0z" fill="none"/><path d="M0,0h24v24H0V0z" fill="none"/></g><g><path d="M12,17.27L18.18,21l-1.64-7.03L22,9.24l-7.19-0.61L12,2L9.19,8.63L2,9.24l5.46,4.73L5.82,21L12,17.27z"/></g>
</symbol>
<symbol id="heading-1">
<path d="M34.648 47L27.8 19.224C26.904 15.512 26.328 12.4187 26.072 9.944H25.816C25.3893 12.8027 24.792 15.832 24.024 19.032L17.24 47H11.928L0.024 3.352H5.464L12.632 31.512C13.4 34.4987 14.04 37.336 14.552 40.024H14.808C15.8747 34.392 16.4507 31.3627 16.536 30.936L23.384 3.352H28.632L35.48 31.384C36.248 34.4987 36.824 37.3787 37.208 40.024H37.464C37.9333 36.7813 38.488 33.9227 39.128 31.448L45.848 3.352H51.288L40.344 47H34.648ZM67.911 15.32C70.5563 15.32 72.903 15.832 74.951 16.856C76.999 17.88 78.5777 19.2027 79.687 20.824C80.839 22.4453 81.6923 24.152 82.247 25.944C82.8017 27.6933 83.079 29.464 83.079 31.256C83.079 32.0667 83.0363 32.6853 82.951 33.112H57.927C57.927 35.8853 59.015 38.3387 61.191 40.472C63.367 42.5627 65.9057 43.608 68.807 43.608C71.9643 43.608 74.5883 42.3707 76.679 39.896H82.503C81.3083 42.1573 79.559 44.0987 77.255 45.72C74.9937 47.2987 72.2203 48.088 68.935 48.088C64.1137 48.088 60.1883 46.488 57.159 43.288C54.1723 40.088 52.679 36.0773 52.679 31.256C52.679 26.8613 54.087 23.1067 56.903 19.992C59.719 16.8773 63.3883 15.32 67.911 15.32ZM67.911 19.736C65.1377 19.736 62.855 20.6533 61.063 22.488C59.271 24.28 58.247 26.4133 57.991 28.888H77.767C77.511 26.3707 76.4657 24.216 74.631 22.424C72.839 20.632 70.599 19.736 67.911 19.736ZM89.791 47V0.919998H94.847V47H89.791ZM117.682 15.32C121.607 15.32 124.722 16.2587 127.026 18.136C129.373 19.9707 130.866 21.9973 131.506 24.216H125.874C124.466 21.2293 121.735 19.736 117.682 19.736C114.61 19.736 112.029 20.7813 109.938 22.872C107.847 24.92 106.802 27.8427 106.802 31.64C106.802 35.096 107.847 37.9547 109.938 40.216C112.071 42.4773 114.759 43.608 118.002 43.608C121.927 43.608 124.701 41.9227 126.322 38.552H131.954C131.015 41.24 129.394 43.5013 127.09 45.336C124.786 47.1707 121.735 48.088 117.938 48.088C113.159 48.088 109.234 46.552 106.162 43.48C103.09 40.3653 101.554 36.3973 101.554 31.576C101.554 26.968 103.026 23.1067 105.97 19.992C108.957 16.8773 112.861 15.32 117.682 15.32ZM136.304 31.64C136.304 26.9467 137.861 23.064 140.976 19.992C144.133 16.8773 148.037 15.32 152.688 15.32C157.424 15.32 161.328 16.8773 164.4 19.992C167.515 23.1067 169.072 26.9893 169.072 31.64C169.072 36.2053 167.515 40.088 164.4 43.288C161.285 46.488 157.381 48.088 152.688 48.088C148.037 48.088 144.133 46.5093 140.976 43.352C137.861 40.1947 136.304 36.2907 136.304 31.64ZM141.552 31.64C141.552 35.0107 142.64 37.8267 144.816 40.088C147.035 42.3493 149.659 43.48 152.688 43.48C155.888 43.48 158.533 42.3493 160.624 40.088C162.757 37.8267 163.824 35.0107 163.824 31.64C163.824 28.312 162.779 25.5173 160.688 23.256C158.64 20.9947 155.973 19.864 152.688 19.864C149.445 19.864 146.779 20.9733 144.688 23.192C142.597 25.4107 141.552 28.2267 141.552 31.64ZM175.791 47V16.344H180.847V20.184H180.975C183.407 16.9413 186.458 15.32 190.127 15.32C192.474 15.32 194.564 15.9173 196.399 17.112C198.234 18.3067 199.471 19.8213 200.111 21.656C200.964 19.9067 202.308 18.4133 204.143 17.176C206.02 15.9387 208.196 15.32 210.671 15.32C214.212 15.32 217.05 16.536 219.183 18.968C221.316 21.3573 222.383 24.7493 222.383 29.144V47H217.327V28.76C217.327 26.2 216.708 24.088 215.471 22.424C214.234 20.7173 212.399 19.864 209.967 19.864C207.62 19.864 205.636 20.7173 204.015 22.424C202.436 24.1307 201.647 26.648 201.647 29.976V47H196.527V28.76C196.527 26.1573 195.866 24.024 194.543 22.36C193.22 20.696 191.45 19.864 189.231 19.864C186.628 19.864 184.58 20.76 183.087 22.552C181.594 24.344 180.847 26.8187 180.847 29.976V47H175.791ZM243.974 15.32C246.619 15.32 248.966 15.832 251.014 16.856C253.062 17.88 254.64 19.2027 255.75 20.824C256.902 22.4453 257.755 24.152 258.31 25.944C258.864 27.6933 259.142 29.464 259.142 31.256C259.142 32.0667 259.099 32.6853 259.014 33.112H233.99C233.99 35.8853 235.078 38.3387 237.254 40.472C239.43 42.5627 241.968 43.608 244.87 43.608C248.027 43.608 250.651 42.3707 252.742 39.896H258.566C257.371 42.1573 255.622 44.0987 253.318 45.72C251.056 47.2987 248.283 48.088 244.998 48.088C240.176 48.088 236.251 46.488 233.222 43.288C230.235 40.088 228.742 36.0773 228.742 31.256C228.742 26.8613 230.15 23.1067 232.966 19.992C235.782 16.8773 239.451 15.32 243.974 15.32ZM243.974 19.736C241.2 19.736 238.918 20.6533 237.126 22.488C235.334 24.28 234.31 26.4133 234.054 28.888H253.83C253.574 26.3707 252.528 24.216 250.694 22.424C248.902 20.632 246.662 19.736 243.974 19.736ZM278.526 20.568V16.344H282.558V6.552H287.614V16.344H295.806V20.568H287.614V36.76C287.614 39.1493 287.976 40.8133 288.702 41.752C289.47 42.648 290.707 43.096 292.414 43.096C293.651 43.096 294.888 42.9253 296.126 42.584V46.744C294.846 47.1707 293.267 47.384 291.39 47.384C287.976 47.384 285.651 46.424 284.414 44.504C283.176 42.584 282.558 39.9387 282.558 36.568V20.568H278.526ZM299.617 31.64C299.617 26.9467 301.174 23.064 304.289 19.992C307.446 16.8773 311.35 15.32 316.001 15.32C320.737 15.32 324.641 16.8773 327.713 19.992C330.827 23.1067 332.385 26.9893 332.385 31.64C332.385 36.2053 330.827 40.088 327.713 43.288C324.598 46.488 320.694 48.088 316.001 48.088C311.35 48.088 307.446 46.5093 304.289 43.352C301.174 40.1947 299.617 36.2907 299.617 31.64ZM304.865 31.64C304.865 35.0107 305.953 37.8267 308.129 40.088C310.347 42.3493 312.971 43.48 316.001 43.48C319.201 43.48 321.846 42.3493 323.937 40.088C326.07 37.8267 327.137 35.0107 327.137 31.64C327.137 28.312 326.091 25.5173 324.001 23.256C321.953 20.9947 319.286 19.864 316.001 19.864C312.758 19.864 310.091 20.9733 308.001 23.192C305.91 25.4107 304.865 28.2267 304.865 31.64Z" fill="#212121"/>
<path d="M352.48 20.568V16.344H356.896V10.84C356.896 7.55467 357.706 5.03733 359.328 3.288C360.992 1.496 363.402 0.599998 366.56 0.599998C367.84 0.599998 369.098 0.770665 370.336 1.112V5.336C369.312 4.99466 368.16 4.824 366.88 4.824C365.258 4.824 364.042 5.31466 363.232 6.296C362.421 7.23466 362.016 8.55733 362.016 10.264V16.344H369.056V20.568H362.016V47H356.896V20.568H352.48ZM403.307 16.344V47H398.251V42.904H398.123C395.264 46.36 391.531 48.088 386.923 48.088C382.614 48.088 378.902 46.5733 375.787 43.544C372.715 40.472 371.179 36.504 371.179 31.64C371.179 26.904 372.694 23 375.723 19.928C378.795 16.856 382.635 15.32 387.243 15.32C391.467 15.32 395.115 17.1333 398.187 20.76H398.251V16.344H403.307ZM379.371 23.32C377.408 25.6667 376.427 28.44 376.427 31.64C376.427 34.84 377.408 37.6347 379.371 40.024C381.334 42.4133 384.086 43.608 387.627 43.608C390.614 43.608 393.195 42.4987 395.371 40.28C397.59 38.0187 398.699 35.2027 398.699 31.832C398.699 28.248 397.632 25.3467 395.499 23.128C393.408 20.8667 390.827 19.736 387.755 19.736C384.128 19.736 381.334 20.9307 379.371 23.32ZM412.166 47V16.344H417.222V47H412.166ZM411.59 8.984V3.032H417.862V8.984H411.59ZM441.913 15.512V20.184C440.633 19.9707 439.652 19.864 438.969 19.864C436.622 19.864 434.724 20.76 433.273 22.552C431.822 24.344 431.097 27.0747 431.097 30.744V47H426.041V16.344H431.097V20.184H431.225C431.822 18.9893 432.868 17.88 434.361 16.856C435.854 15.832 437.518 15.32 439.353 15.32C440.334 15.32 441.188 15.384 441.913 15.512ZM447.468 47V16.344H455.98V20.184H456.108C458.327 16.984 461.292 15.384 465.004 15.384C467.18 15.384 469.057 15.9173 470.636 16.984C472.257 18.0507 473.388 19.352 474.028 20.888C474.881 19.3947 476.204 18.1147 477.996 17.048C479.788 15.9387 481.772 15.384 483.948 15.384C487.532 15.384 490.348 16.6 492.396 19.032C494.487 21.464 495.532 24.92 495.532 29.4V47H486.892V29.656C486.892 27.736 486.444 26.1573 485.548 24.92C484.695 23.64 483.415 23 481.708 23C480.087 23 478.7 23.64 477.548 24.92C476.396 26.2 475.82 28.0773 475.82 30.552V47H467.18V29.656C467.18 27.736 466.711 26.1573 465.772 24.92C464.833 23.64 463.575 23 461.996 23C460.204 23 458.775 23.6613 457.708 24.984C456.641 26.3067 456.108 28.1627 456.108 30.552V47H447.468ZM533.62 16.344V47H525.3V43.16H525.044C522.612 46.4027 519.284 48.024 515.06 48.024C513.481 48.024 511.902 47.704 510.324 47.064C508.788 46.424 507.294 45.4853 505.844 44.248C504.436 42.968 503.284 41.24 502.388 39.064C501.534 36.888 501.108 34.4133 501.108 31.64C501.108 26.8613 502.516 22.9787 505.332 19.992C508.19 17.0053 511.646 15.512 515.7 15.512C519.753 15.512 522.868 17.112 525.044 20.312H525.3V16.344H533.62ZM509.876 31.704C509.876 34.136 510.558 36.2267 511.924 37.976C513.289 39.6827 515.23 40.536 517.748 40.536C519.838 40.536 521.63 39.704 523.124 38.04C524.66 36.376 525.428 34.2853 525.428 31.768C525.428 29.1227 524.702 26.9893 523.252 25.368C521.801 23.704 519.988 22.872 517.812 22.872C515.294 22.872 513.332 23.7467 511.924 25.496C510.558 27.2453 509.876 29.3147 509.876 31.704ZM541.656 47V0.919998H550.296V47H541.656ZM558.218 47V0.919998H566.858V47H558.218Z" fill="#E11493"/>
</symbol>
<symbol id="chevron">
<path d="M0 0h24v24H0V0z" fill="none"/><path d="M10 6L8.59 7.41 13.17 12l-4.58 4.59L10 18l6-6-6-6z"/>
</symbol>
<symbol id="facebook">
<path fill-rule="evenodd" clip-rule="evenodd" d="M0 12.067C0 18.033 4.333 22.994 10 24V15.333H7V12H10V9.333C10 6.333 11.933 4.667 14.667 4.667C15.533 4.667 16.467 4.8 17.333 4.933V8H15.8C14.333 8 14 8.733 14 9.667V12H17.2L16.667 15.333H14V24C19.667 22.994 24 18.034 24 12.067C24 5.43 18.6 0 12 0C5.4 0 0 5.43 0 12.067Z" />
</symbol>
<symbol id="heart-outline">
<path d="M14.5 0C12.76 0 11.09 0.81 10 2.09C8.91 0.81 7.24 0 5.5 0C2.42 0 0 2.42 0 5.5C0 9.28 3.4 12.36 8.55 17.04L10 18.35L11.45 17.03C16.6 12.36 20 9.28 20 5.5C20 2.42 17.58 0 14.5 0ZM10.1 15.55L10 15.65L9.9 15.55C5.14 11.24 2 8.39 2 5.5C2 3.5 3.5 2 5.5 2C7.04 2 8.54 2.99 9.07 4.36H10.94C11.46 2.99 12.96 2 14.5 2C16.5 2 18 3.5 18 5.5C18 8.39 14.86 11.24 10.1 15.55Z" />
</symbol>
<symbol id="instagram">
<path d="M12.0006 0.00012207C8.74173 0.00012207 8.33275 0.0143723 7.05279 0.0726223C5.77533 0.131122 4.90335 0.333372 4.14037 0.630122C3.35115 0.936622 2.68167 1.34662 2.01469 2.01387C1.34721 2.68087 0.937221 3.35037 0.629731 4.13937C0.33224 4.90262 0.129746 5.77487 0.0722477 7.05187C0.0149994 8.33187 0 8.74112 0 12.0001C0 15.2591 0.0144998 15.6669 0.072498 16.9469C0.131246 18.2244 0.33349 19.0964 0.629981 19.8594C0.936722 20.6486 1.34671 21.3181 2.01394 21.9851C2.68067 22.6526 3.35015 23.0636 4.13887 23.3701C4.90235 23.6669 5.77457 23.8691 7.05179 23.9276C8.33175 23.9859 8.74049 24.0001 11.9991 24.0001C15.2583 24.0001 15.666 23.9859 16.946 23.9276C18.2234 23.8691 19.0964 23.6669 19.8599 23.3701C20.6489 23.0636 21.3174 22.6526 21.9841 21.9851C22.6516 21.3181 23.0616 20.6486 23.369 19.8596C23.664 19.0964 23.8665 18.2241 23.9265 16.9471C23.984 15.6671 23.999 15.2591 23.999 12.0001C23.999 8.74112 23.984 8.33212 23.9265 7.05212C23.8665 5.77462 23.664 4.90262 23.369 4.13962C23.0616 3.35037 22.6516 2.68087 21.9841 2.01387C21.3166 1.34637 20.6491 0.936372 19.8591 0.630122C19.0942 0.333372 18.2217 0.131122 16.9442 0.0726223C15.6643 0.0143723 15.2568 0.00012207 11.9969 0.00012207H12.0006ZM10.9242 2.16262C11.2437 2.16212 11.6001 2.16262 12.0006 2.16262C15.2045 2.16262 15.5843 2.17412 16.8495 2.23162C18.0195 2.28512 18.6544 2.48062 19.0774 2.64487C19.6374 2.86237 20.0366 3.12237 20.4564 3.54237C20.8764 3.96237 21.1364 4.36237 21.3544 4.92237C21.5186 5.34487 21.7143 5.97987 21.7676 7.14987C21.8251 8.41487 21.8376 8.79487 21.8376 11.9974C21.8376 15.1999 21.8251 15.5799 21.7676 16.8449C21.7141 18.0149 21.5186 18.6499 21.3544 19.0724C21.1369 19.6324 20.8764 20.0311 20.4564 20.4509C20.0364 20.8709 19.6377 21.1309 19.0774 21.3484C18.6549 21.5134 18.0195 21.7084 16.8495 21.7619C15.5845 21.8194 15.2045 21.8319 12.0006 21.8319C8.79648 21.8319 8.41675 21.8194 7.15178 21.7619C5.98182 21.7079 5.34684 21.5124 4.9236 21.3481C4.36362 21.1306 3.96363 20.8706 3.54364 20.4506C3.12366 20.0306 2.86366 19.6316 2.64567 19.0714C2.48142 18.6489 2.28568 18.0139 2.23243 16.8439C2.17493 15.5789 2.16343 15.1989 2.16343 11.9944C2.16343 8.78987 2.17493 8.41187 2.23243 7.14687C2.28593 5.97687 2.48142 5.34187 2.64567 4.91887C2.86316 4.35887 3.12366 3.95887 3.54364 3.53887C3.96363 3.11887 4.36362 2.85887 4.9236 2.64087C5.34659 2.47587 5.98182 2.28087 7.15178 2.22712C8.25875 2.17712 8.68774 2.16212 10.9242 2.15962V2.16262ZM18.4059 4.15512C17.611 4.15512 16.966 4.79937 16.966 5.59462C16.966 6.38962 17.611 7.03462 18.4059 7.03462C19.2009 7.03462 19.8459 6.38962 19.8459 5.59462C19.8459 4.79962 19.2009 4.15462 18.4059 4.15462V4.15512ZM12.0006 5.83762C8.59749 5.83762 5.83832 8.59687 5.83832 12.0001C5.83832 15.4034 8.59749 18.1614 12.0006 18.1614C15.4038 18.1614 18.1619 15.4034 18.1619 12.0001C18.1619 8.59687 15.4035 5.83762 12.0004 5.83762H12.0006ZM12.0006 8.00012C14.2096 8.00012 16.0005 9.79087 16.0005 12.0001C16.0005 14.2091 14.2096 16.0001 12.0006 16.0001C9.79145 16.0001 8.00076 14.2091 8.00076 12.0001C8.00076 9.79087 9.79145 8.00012 12.0006 8.00012Z" fill="white"/>
</symbol>
<symbol id="twitter">
<path fill-rule="evenodd" clip-rule="evenodd" d="M24.9822 5.97299C24.9924 6.23686 24.9959 6.50062 24.9959 6.76449C24.9959 14.7645 19.3682 24 9.0773 24C5.91611 24 2.97665 22.9925 0.5 21.2773C0.937792 21.3253 1.38241 21.3614 1.83385 21.3614C4.45491 21.3614 6.86902 20.3897 8.78393 18.7585C6.33571 18.7225 4.26843 16.9594 3.55546 14.5606C3.89773 14.6325 4.25021 14.6686 4.61068 14.6686C5.11897 14.6686 5.61248 14.5968 6.08552 14.4528C3.52359 13.9011 1.59392 11.4544 1.59392 8.51585C1.59392 8.47987 1.59392 8.46781 1.59392 8.44382C2.34897 8.8876 3.21316 9.16332 4.13082 9.1993C2.62755 8.10785 1.63938 6.24883 1.63938 4.14988C1.63938 3.04643 1.91456 2.0029 2.39897 1.10335C5.15763 4.77352 9.282 7.18435 13.9317 7.43622C13.8362 6.99244 13.7873 6.52479 13.7873 6.05703C13.7873 2.7107 16.2923 0 19.383 0C20.992 0 22.4453 0.731739 23.4653 1.90715C24.7423 1.64328 25.9385 1.13957 27.0211 0.443918C26.6015 1.85921 25.7156 3.04637 24.558 3.79C25.6906 3.64607 26.7709 3.32248 27.7727 2.84272C27.0211 4.05411 26.075 5.12141 24.9822 5.97299Z" fill="white"/>
</symbol>
<symbol id="share">
<path d="M15 14.08C14.24 14.08 13.56 14.38 13.04 14.85L5.91 10.7C5.96 10.47 6 10.24 6 10C6 9.76 5.96 9.53 5.91 9.3L12.96 5.19C13.5 5.69 14.21 6 15 6C16.66 6 18 4.66 18 3C18 1.34 16.66 0 15 0C13.34 0 12 1.34 12 3C12 3.24 12.04 3.47 12.09 3.7L5.04 7.81C4.5 7.31 3.79 7 3 7C1.34 7 0 8.34 0 10C0 11.66 1.34 13 3 13C3.79 13 4.5 12.69 5.04 12.19L12.16 16.35C12.11 16.56 12.08 16.78 12.08 17C12.08 18.61 13.39 19.92 15 19.92C16.61 19.92 17.92 18.61 17.92 17C17.92 15.39 16.61 14.08 15 14.08ZM15 2C15.55 2 16 2.45 16 3C16 3.55 15.55 4 15 4C14.45 4 14 3.55 14 3C14 2.45 14.45 2 15 2ZM3 11C2.45 11 2 10.55 2 10C2 9.45 2.45 9 3 9C3.55 9 4 9.45 4 10C4 10.55 3.55 11 3 11ZM15 18.02C14.45 18.02 14 17.57 14 17.02C14 16.47 14.45 16.02 15 16.02C15.55 16.02 16 16.47 16 17.02C16 17.57 15.55 18.02 15 18.02Z" fill="#323232"/>
</symbol>
<symbol id="eye">
<path d="M0 0h24v24H0V0z" fill="none"/><path d="M12 6.5c3.79 0 7.17 2.13 8.82 5.5-1.65 3.37-5.02 5.5-8.82 5.5S4.83 15.37 3.18 12C4.83 8.63 8.21 6.5 12 6.5m0-2C7 4.5 2.73 7.61 1 12c1.73 4.39 6 7.5 11 7.5s9.27-3.11 11-7.5c-1.73-4.39-6-7.5-11-7.5zm0 5c1.38 0 2.5 1.12 2.5 2.5s-1.12 2.5-2.5 2.5-2.5-1.12-2.5-2.5 1.12-2.5 2.5-2.5m0-2c-2.48 0-4.5 2.02-4.5 4.5s2.02 4.5 4.5 4.5 4.5-2.02 4.5-4.5-2.02-4.5-4.5-4.5z"/>
</symbol>
<symbol id="plus">
<path d="M0 0h24v24H0V0z" fill="none"/><path d="M19 13h-6v6h-2v-6H5v-2h6V5h2v6h6v2z"/>
</symbol>
<symbol id="minus">
<path d="M0 0h24v24H0V0z" fill="none"/><path d="M19 13H5v-2h14v2z"/>
</symbol>
<symbol id="caret">
<path d="M0 0L5 5L10 0H0Z" />
</symbol>
<symbol id="bin">
<path d="M1.28571 20.4444C1.28571 21.85 2.44286 23 3.85714 23H14.1429C15.5571 23 16.7143 21.85 16.7143 20.4444V5.11111H1.28571V20.4444ZM18 1.27778H13.5L12.2143 0H5.78571L4.5 1.27778H0V3.83333H18V1.27778Z" />
</symbol>
<symbol id="whatsapp">
<path fill-rule="evenodd" clip-rule="evenodd" d="M16.153 2.63303C15.3214 1.79591 14.3319 1.13214 13.2419 0.680178C12.1519 0.22821 10.983 -0.00297023 9.803 2.88091e-05C4.855 2.88091e-05 0.827 4.02703 0.825 8.97703C0.825 10.559 1.238 12.103 2.023 13.465L0.75 18.116L5.509 16.867C6.82539 17.5836 8.3002 17.9594 9.799 17.96H9.803C14.75 17.96 18.778 13.933 18.78 8.98303C18.7834 7.80351 18.553 6.63502 18.1021 5.54509C17.6512 4.45516 16.9887 3.4654 16.153 2.63303ZM9.803 16.445H9.8C8.46352 16.4452 7.15163 16.0856 6.002 15.404L5.73 15.242L2.906 15.983L3.659 13.23L3.482 12.948C2.73479 11.7585 2.33923 10.3818 2.341 8.97703C2.343 4.86303 5.69 1.51603 9.806 1.51603C10.7863 1.51385 11.7572 1.70611 12.6627 2.08168C13.5681 2.45725 14.3901 3.00867 15.081 3.70403C15.7756 4.39607 16.3262 5.21892 16.7009 6.12503C17.0756 7.03113 17.267 8.00251 17.264 8.98303C17.262 13.097 13.915 16.445 9.803 16.445ZM13.896 10.856C13.671 10.743 12.569 10.201 12.363 10.126C12.158 10.051 12.009 10.014 11.859 10.238C11.709 10.462 11.279 10.967 11.148 11.117C11.017 11.267 10.886 11.285 10.662 11.173C10.438 11.061 9.715 10.824 8.858 10.06C8.191 9.46503 7.741 8.73103 7.61 8.50603C7.479 8.28103 7.596 8.16003 7.709 8.04803C7.81 7.94803 7.933 7.78603 8.045 7.65503C8.157 7.52403 8.194 7.43103 8.269 7.28103C8.344 7.13103 8.307 7.00003 8.25 6.88803C8.194 6.77503 7.745 5.67103 7.558 5.22203C7.377 4.78703 7.192 4.84503 7.054 4.83903C6.91108 4.83318 6.76804 4.83052 6.625 4.83103C6.51126 4.83393 6.39934 4.86029 6.29626 4.90848C6.19318 4.95666 6.10117 5.02562 6.026 5.11103C5.82 5.33603 5.241 5.87803 5.241 6.98203C5.241 8.08603 6.045 9.15303 6.157 9.30303C6.269 9.45303 7.739 11.718 9.989 12.69C10.525 12.921 10.943 13.059 11.268 13.163C11.805 13.334 12.294 13.309 12.681 13.252C13.112 13.188 14.008 12.71 14.195 12.186C14.382 11.662 14.382 11.213 14.326 11.119C14.27 11.025 14.119 10.968 13.896 10.856Z" />
</symbol>
<symbol id="chatbot">
<path d="M11.802 21.5L10.5 20.75L13.5 15.5H18C18.1971 15.5003 18.3923 15.4617 18.5744 15.3864C18.7565 15.3111 18.922 15.2007 19.0613 15.0613C19.2007 14.922 19.3111 14.7565 19.3864 14.5744C19.4617 14.3923 19.5003 14.1971 19.5 14V3.5C19.5003 3.30293 19.4617 3.10775 19.3864 2.92562C19.3111 2.7435 19.2007 2.57803 19.0613 2.43868C18.922 2.29933 18.7565 2.18885 18.5744 2.11358C18.3923 2.0383 18.1971 1.9997 18 2H3C2.80293 1.9997 2.60775 2.0383 2.42562 2.11358C2.2435 2.18885 2.07803 2.29933 1.93868 2.43868C1.79933 2.57803 1.68885 2.7435 1.61358 2.92562C1.5383 3.10775 1.4997 3.30293 1.5 3.5V14C1.4997 14.1971 1.5383 14.3923 1.61358 14.5744C1.68885 14.7565 1.79933 14.922 1.93868 15.0613C2.07803 15.2007 2.2435 15.3111 2.42562 15.3864C2.60775 15.4617 2.80293 15.5003 3 15.5H9.75V17H3C2.20435 17 1.44129 16.6839 0.87868 16.1213C0.316071 15.5587 9.38056e-08 14.7956 9.38056e-08 14V3.5C-9.84415e-05 3.10601 0.0774316 2.71585 0.228161 2.35183C0.37889 1.98781 0.599865 1.65706 0.87846 1.37846C1.15706 1.09986 1.48781 0.87889 1.85183 0.728161C2.21585 0.577432 2.60601 0.499902 3 0.5H18C18.394 0.499902 18.7841 0.577432 19.1482 0.728161C19.5122 0.87889 19.8429 1.09986 20.1215 1.37846C20.4001 1.65706 20.6211 1.98781 20.7718 2.35183C20.9226 2.71585 21.0001 3.10601 21 3.5V14C21 14.7956 20.6839 15.5587 20.1213 16.1213C19.5587 16.6839 18.7956 17 18 17H14.3738L11.802 21.5Z" fill="white"/>
</symbol>
<symbol id="plus">
<path d="M0 0h24v24H0V0z" fill="none"/><path d="M19 13h-6v6h-2v-6H5v-2h6V5h2v6h6v2z"/>
</symbol>
<symbol id="minus">
<path d="M0 0h24v24H0V0z" fill="none"/><path d="M19 13H5v-2h14v2z"/>
</symbol>
<symbol id="unmask">
<path d="M0 0h24v24H0V0zm0 0h24v24H0V0zm0 0h24v24H0V0zm0 0h24v24H0V0z" fill="none"/><path d="M12 6c3.79 0 7.17 2.13 8.82 5.5-.59 1.22-1.42 2.27-2.41 3.12l1.41 1.41c1.39-1.23 2.49-2.77 3.18-4.53C21.27 7.11 17 4 12 4c-1.27 0-2.49.2-3.64.57l1.65 1.65C10.66 6.09 11.32 6 12 6zm-1.07 1.14L13 9.21c.57.25 1.03.71 1.28 1.28l2.07 2.07c.08-.34.14-.7.14-1.07C16.5 9.01 14.48 7 12 7c-.37 0-.72.05-1.07.14zM2.01 3.87l2.68 2.68C3.06 7.83 1.77 9.53 1 11.5 2.73 15.89 7 19 12 19c1.52 0 2.98-.29 4.32-.82l3.42 3.42 1.41-1.41L3.42 2.45 2.01 3.87zm7.5 7.5l2.61 2.61c-.04.01-.08.02-.12.02-1.38 0-2.5-1.12-2.5-2.5 0-.05.01-.08.01-.13zm-3.4-3.4l1.75 1.75c-.23.55-.36 1.15-.36 1.78 0 2.48 2.02 4.5 4.5 4.5.63 0 1.23-.13 1.77-.36l.98.98c-.88.24-1.8.38-2.75.38-3.79 0-7.17-2.13-8.82-5.5.7-1.43 1.72-2.61 2.93-3.53z"/>
</symbol>
<symbol id="mask">
<path d="M0 0h24v24H0V0z" fill="none"/><path d="M12 6c3.79 0 7.17 2.13 8.82 5.5C19.17 14.87 15.79 17 12 17s-7.17-2.13-8.82-5.5C4.83 8.13 8.21 6 12 6m0-2C7 4 2.73 7.11 1 11.5 2.73 15.89 7 19 12 19s9.27-3.11 11-7.5C21.27 7.11 17 4 12 4zm0 5c1.38 0 2.5 1.12 2.5 2.5S13.38 14 12 14s-2.5-1.12-2.5-2.5S10.62 9 12 9m0-2c-2.48 0-4.5 2.02-4.5 4.5S9.52 16 12 16s4.5-2.02 4.5-4.5S14.48 7 12 7z"/>
</symbol>
<symbol id="bookmark">
<path d="M0 0h24v24H0V0z" fill="none"/><path d="M17 3H7c-1.1 0-2 .9-2 2v16l7-3 7 3V5c0-1.1-.9-2-2-2zm0 15l-5-2.18L7 18V5h10v13z"/>
</symbol>
<symbol id="arrow">
<rect fill="none" height="24" width="24"/><path d="M9,19l1.41-1.41L5.83,13H22V11H5.83l4.59-4.59L9,5l-7,7L9,19z"/>
</symbol>
<symbol id="menu">
<path d="M0 0h24v24H0V0z" fill="none"/><path d="M4 18h16c.55 0 1-.45 1-1s-.45-1-1-1H4c-.55 0-1 .45-1 1s.45 1 1 1zm0-5h16c.55 0 1-.45 1-1s-.45-1-1-1H4c-.55 0-1 .45-1 1s.45 1 1 1zM3 7c0 .55.45 1 1 1h16c.55 0 1-.45 1-1s-.45-1-1-1H4c-.55 0-1 .45-1 1z"/>
</symbol>
</defs>
</svg>