<svg width="181" height="364" viewBox="0 0 181 364" fill="none" xmlns="http://www.w3.org/2000/svg">
<path opacity="0.2" fill-rule="evenodd" clip-rule="evenodd" d="M46.3647 306.096C-38.9614 306.096 -98.4375 219.899 -67.7468 139.66C-63.441 137.442 -58.758 135.825 -53.8384 134.964C-52.9782 134.813 -52.3004 134.759 -51.4279 134.65C-29.1198 131.839 -7.75555 144.415 0.459351 165.902L0.488907 165.828C4.9747 177.479 4.76521 190.131 0.51358 201.216C-2.45888 193.497 -3.37575 185.317 -2.40219 177.429C-3.86377 171.25 -6.47885 165.024 -10.134 159.49L-10.2942 159.248C-22.4034 187.54 -11.746 221.123 15.5853 237.012C15.6593 237.052 15.7258 237.102 15.7997 237.136C39.0987 250.558 65.3209 245.115 77.2427 236.956C117.745 213.31 118.083 155.294 78.6378 130.902C76.1065 124.928 73.1612 119.171 69.8338 113.672C99.1763 123.553 119.848 151.338 119.848 183.522C119.848 224.172 86.8847 257.244 46.3647 257.244C-9.67558 257.244 -44.2852 196.931 -18.5535 148.91L-18.7236 149.229C-21.977 146.484 -25.3463 144.024 -28.9694 142.006C-60.0668 198.276 -19.6577 269.743 46.3647 269.743C93.7539 269.743 132.305 231.063 132.305 183.522C132.305 140.666 100.958 104.467 58.989 98.2702C55.2895 93.7205 51.2966 89.4156 47.045 85.3827C100.675 85.7536 144.194 129.633 144.194 183.522C144.194 237.641 100.31 281.668 46.3647 281.668C-27.6064 281.668 -74.409 202.252 -40.1149 137.607L-40.1518 137.595C-44.12 136.675 -48.6453 136.156 -53.4589 136.475C-87.6618 209.292 -34.5914 294.165 46.3647 294.165C107.174 294.165 156.654 244.529 156.654 183.522C156.654 117.693 99.1985 65.6362 32.9468 73.7119C28.1529 70.2625 23.1224 67.1223 17.8898 64.3159C94.969 45.818 168.543 104.771 168.543 183.522C168.543 251.112 113.733 306.096 46.3647 306.096ZM-17.6416 327.074V364H-30.0835V329.123L-29.9627 329.104C-25.9501 328.631 -21.9252 327.966 -17.8954 327.116L-17.6416 327.074ZM6.72957 323.926V364H-5.71478V323.951L-5.61618 323.921C-3.60251 323.28 -1.65785 322.618 0.326248 321.918L0.42482 321.881L0.52095 321.846C1.6498 322.257 2.77863 322.648 3.90993 323.021C4.75287 323.3 5.59334 323.57 6.43874 323.834L6.53242 323.864L6.631 323.894L6.72957 323.926ZM31.0859 329.118V364H18.6416V327.056L18.8363 327.098L19.031 327.14L19.2257 327.18C21.8211 327.724 24.4189 328.191 27.0068 328.574L27.2015 328.604C28.498 328.795 29.7919 328.965 31.0859 329.118ZM-30.0835 0H-17.6416V39.2928L-17.8338 39.2507L-18.031 39.2087L-18.4204 39.127L-18.6127 39.0875C-19.6503 38.8724 -20.6855 38.6721 -21.7207 38.4817L-21.7281 38.4792L-21.9228 38.4446L-22.1175 38.41L-22.3122 38.3754L-22.5094 38.3408L-22.7016 38.3061C-23.7393 38.1256 -24.7769 37.9575 -25.8121 37.8018L-26.0068 37.7721L-26.2015 37.7424L-26.3962 37.7152L-26.591 37.688L-26.7832 37.6608C-27.8209 37.5124 -28.8585 37.3764 -29.8912 37.2528L-30.0835 37.2305V0ZM-5.71478 0H6.72957V42.4107L6.631 42.4429L6.53242 42.4726L6.43381 42.5023L6.33768 42.5344L6.24156 42.5641L6.14299 42.5937C5.39618 42.8286 4.64935 43.0685 3.90501 43.3133C2.76138 43.6916 1.61777 44.0872 0.476608 44.5026C-0.644836 44.0921 -1.76875 43.7064 -2.89267 43.3331C-3.67152 43.0734 -4.45039 42.8237 -5.2317 42.5789L-5.32784 42.5492L-5.42397 42.5195L-5.52254 42.4899L-5.61618 42.4577L-5.71478 42.4281V0ZM18.6416 0H31.0859V37.2305L30.8912 37.2528C29.792 37.3838 28.6902 37.5272 27.591 37.688L27.3987 37.7152L27.2015 37.7424L27.0093 37.7721L26.8146 37.7993C24.3523 38.1677 21.8876 38.6103 19.4204 39.1221L19.2257 39.1642L19.031 39.2037L18.8363 39.2457L18.6416 39.2878V0ZM-106.958 183.522C-106.958 203.857 -96.8971 222.864 -80.3785 234.34C-82.3873 227.288 -83.9819 219.936 -85.1847 212.313C-97.5798 195.052 -97.6217 171.96 -85.2044 154.721C-89.2712 173.468 -89.3328 193.22 -85.1847 212.313C-83.6369 220.213 -81.0785 228.232 -77.6969 236.105L-77.6353 236.142C-75.1065 242.116 -72.1587 247.872 -68.8362 253.374C-65.7085 258.492 -62.1026 263.613 -58.233 268.734L-57.9865 268.771C-54.2845 273.323 -50.2966 277.631 -46.0474 281.659C-41.7514 285.892 -37.0981 289.821 -31.9443 293.332C-27.1628 296.774 -22.1446 299.912 -16.9243 302.708L-16.9046 302.718L-16.8874 302.728C-11.2999 305.675 -5.51515 308.61 0.52095 310.527L0.525879 310.529C88.2107 342.471 181 276.839 181 183.522C181 90.2489 88.2798 24.5657 0.476608 56.5172C-87.2033 24.5657 -180 90.2019 -180 183.522C-180 271.355 -97.7794 334.707 -14.8712 315.121L-15.1497 314.963C-20.8309 312.131 -26.1399 309.001 -31.0841 305.599L-31.4834 305.324C-103.014 313.677 -167.543 257.266 -167.543 183.522C-167.543 115.935 -112.733 60.9481 -45.3623 60.9481C39.9638 60.9481 99.4375 147.142 68.7468 227.384C64.0934 229.783 59.0211 231.466 53.6578 232.27C89.5072 159.085 36.2249 72.8762 -45.3623 72.8762C-106.174 72.8762 -155.653 122.512 -155.653 183.522C-155.653 244.863 -105.736 294.274 -45.3105 294.153C-49.7026 290.021 -53.7176 285.605 -57.3753 280.922C-57.6883 280.86 -143.194 268.68 -143.194 183.522C-143.194 129.403 -99.3051 85.3754 -45.3623 85.3754C29.7131 85.3754 76.8089 167.185 39.5202 232.329C35.3647 231.746 31.3694 230.641 27.6107 229.078C63.0164 172.259 22.2474 97.3034 -45.3623 97.3034C-92.7514 97.3034 -131.305 135.98 -131.305 183.522C-131.305 223.339 -104.249 257.4 -66.7535 267.003C-69.6718 261.964 -72.2597 256.682 -74.5445 251.181L-74.3695 251.255C-100.74 239.908 -118.848 213.641 -118.848 183.522C-118.848 142.872 -85.8847 109.8 -45.3623 109.8C12.534 109.8 47.5552 174.178 16.7955 222.864C13.5347 220.391 10.5967 217.518 8.04083 214.326C25.0474 184.736 14.772 147.09 -14.6001 130.024C-14.6666 129.989 -14.7282 129.94 -14.7948 129.91C-56.0616 106.136 -106.958 136.487 -106.958 183.522ZM86.1847 154.73C98.5798 171.99 98.6242 195.084 86.2069 212.323C90.2811 193.544 90.323 173.787 86.1847 154.73Z" fill="white"/>
</svg>
